# xmcd CD database file
#
# Track frame offsets:
#	150
#	13525
#	31376
#	60107
#	73671
#	98272
#	115588
#
# Disc length: 2179 seconds
#
# Revision: 0
# Processed by: cddbd v1.5.2PL0 Copyright (c) Steve Scherf et al.
# Submitted via: CDex 2.09
#
DISCID=44088107
DTITLE=Space Art - Trip In The Center Head
DYEAR=1977
DGENRE=New Age
TTITLE0=Speedway
TTITLE1=Odyssey
TTITLE2=Eyes Shade
TTITLE3=Watch It
TTITLE4=L'obsession d'Archibald
TTITLE5=Hollywood Flanger
TTITLE6=Phychosomatique
EXTD=YEAR: 1977
EXTT0=
EXTT1=
EXTT2=
EXTT3=
EXTT4=
EXTT5=
EXTT6=
PLAYORDER=
